<svg id="visual" viewBox="0 0 900 600" width="900" height="600" xmlns="http://www.w3.org/2000/svg" xmlns:xlink="http://www.w3.org/1999/xlink" version="1.1"><rect x="0" y="0" width="900" height="600" fill="#212529"></rect><defs><linearGradient id="grad1_0" x1="33.3%" y1="0%" x2="100%" y2="100%"><stop offset="20%" stop-color="#0d6efd" stop-opacity="1"></stop><stop offset="80%" stop-color="#0d6efd" stop-opacity="1"></stop></linearGradient></defs><defs><linearGradient id="grad1_1" x1="33.3%" y1="0%" x2="100%" y2="100%"><stop offset="20%" stop-color="#0d6efd" stop-opacity="1"></stop><stop offset="80%" stop-color="#0060c7" stop-opacity="1"></stop></linearGradient></defs><defs><linearGradient id="grad1_2" x1="33.3%" y1="0%" x2="100%" y2="100%"><stop offset="20%" stop-color="#004e90" stop-opacity="1"></stop><stop offset="80%" stop-color="#0060c7" stop-opacity="1"></stop></linearGradient></defs><defs><linearGradient id="grad1_3" x1="33.3%" y1="0%" x2="100%" y2="100%"><stop offset="20%" stop-color="#004e90" stop-opacity="1"></stop><stop offset="80%" stop-color="#103a5a" stop-opacity="1"></stop></linearGradient></defs><defs><linearGradient id="grad1_4" x1="33.3%" y1="0%" x2="100%" y2="100%"><stop offset="20%" stop-color="#212529" stop-opacity="1"></stop><stop offset="80%" stop-color="#103a5a" stop-opacity="1"></stop></linearGradient></defs><defs><linearGradient id="grad2_0" x1="0%" y1="0%" x2="66.7%" y2="100%"><stop offset="20%" stop-color="#0d6efd" stop-opacity="1"></stop><stop offset="80%" stop-color="#0d6efd" stop-opacity="1"></stop></linearGradient></defs><defs><linearGradient id="grad2_1" x1="0%" y1="0%" x2="66.7%" y2="100%"><stop offset="20%" stop-color="#0060c7" stop-opacity="1"></stop><stop offset="80%" stop-color="#0d6efd" stop-opacity="1"></stop></linearGradient></defs><defs><linearGradient id="grad2_2" x1="0%" y1="0%" x2="66.7%" y2="100%"><stop offset="20%" stop-color="#0060c7" stop-opacity="1"></stop><stop offset="80%" stop-color="#004e90" stop-opacity="1"></stop></linearGradient></defs><defs><linearGradient id="grad2_3" x1="0%" y1="0%" x2="66.7%" y2="100%"><stop offset="20%" stop-color="#103a5a" stop-opacity="1"></stop><stop offset="80%" stop-color="#004e90" stop-opacity="1"></stop></linearGradient></defs><defs><linearGradient id="grad2_4" x1="0%" y1="0%" x2="66.7%" y2="100%"><stop offset="20%" stop-color="#103a5a" stop-opacity="1"></stop><stop offset="80%" stop-color="#212529" stop-opacity="1"></stop></linearGradient></defs><g transform="translate(900, 0)"><path d="M0 459.7C-51.3 459.1 -102.7 458.5 -139.7 429.9C-176.7 401.2 -199.3 344.5 -222.2 305.8C-245 267.1 -268 246.4 -309 224.5C-350.1 202.7 -409.1 179.7 -437.2 142.1C-465.3 104.4 -462.5 52.2 -459.7 0L0 0Z" fill="#1d3041"></path><path d="M0 367.8C-41.1 367.3 -82.1 366.8 -111.7 343.9C-141.3 321 -159.5 275.6 -177.7 244.6C-196 213.7 -214.4 197.1 -247.2 179.6C-280.1 162.1 -327.3 143.7 -349.8 113.6C-372.3 83.6 -370 41.8 -367.8 0L0 0Z" fill="#004475"></path><path d="M0 275.8C-30.8 275.5 -61.6 275.1 -83.8 257.9C-106 240.7 -119.6 206.7 -133.3 183.5C-147 160.3 -160.8 147.8 -185.4 134.7C-210 121.6 -245.5 107.8 -262.3 85.2C-279.2 62.7 -277.5 31.3 -275.8 0L0 0Z" fill="#0058ac"></path><path d="M0 183.9C-20.5 183.6 -41.1 183.4 -55.9 172C-70.7 160.5 -79.7 137.8 -88.9 122.3C-98 106.8 -107.2 98.6 -123.6 89.8C-140 81.1 -163.6 71.9 -174.9 56.8C-186.1 41.8 -185 20.9 -183.9 0L0 0Z" fill="#0068e2"></path><path d="M0 91.9C-10.3 91.8 -20.5 91.7 -27.9 86C-35.3 80.2 -39.9 68.9 -44.4 61.2C-49 53.4 -53.6 49.3 -61.8 44.9C-70 40.5 -81.8 35.9 -87.4 28.4C-93.1 20.9 -92.5 10.4 -91.9 0L0 0Z" fill="#0d6efd"></path></g><g transform="translate(0, 600)"><path d="M0 -459.7C42.1 -441.1 84.3 -422.5 133.8 -411.8C183.3 -401.1 240.2 -398.4 264.5 -364.1C288.8 -329.7 280.6 -263.8 309.9 -225.1C339.1 -186.4 406 -175 437.2 -142.1C468.4 -109.1 464.1 -54.5 459.7 0L0 0Z" fill="#1d3041"></path><path d="M0 -367.8C33.7 -352.9 67.4 -338 107 -329.4C146.7 -320.9 192.2 -318.7 211.6 -291.2C231.1 -263.8 224.5 -211 247.9 -180.1C271.3 -149.2 324.8 -140 349.8 -113.6C374.8 -87.3 371.3 -43.6 367.8 0L0 0Z" fill="#004475"></path><path d="M0 -275.8C25.3 -264.7 50.6 -253.5 80.3 -247.1C110 -240.7 144.1 -239 158.7 -218.4C173.3 -197.8 168.3 -158.3 185.9 -135.1C203.5 -111.9 243.6 -105 262.3 -85.2C281.1 -65.4 278.4 -32.7 275.8 0L0 0Z" fill="#0058ac"></path><path d="M0 -183.9C16.9 -176.4 33.7 -169 53.5 -164.7C73.3 -160.5 96.1 -159.4 105.8 -145.6C115.5 -131.9 112.2 -105.5 123.9 -90C135.7 -74.6 162.4 -70 174.9 -56.8C187.4 -43.6 185.6 -21.8 183.9 0L0 0Z" fill="#0068e2"></path><path d="M0 -91.9C8.4 -88.2 16.9 -84.5 26.8 -82.4C36.7 -80.2 48 -79.7 52.9 -72.8C57.8 -65.9 56.1 -52.8 62 -45C67.8 -37.3 81.2 -35 87.4 -28.4C93.7 -21.8 92.8 -10.9 91.9 0L0 0Z" fill="#0d6efd"></path></g></svg>